<svg width="75" height="88" viewBox="0 0 75 88" fill="none" xmlns="http://www.w3.org/2000/svg">
<path d="M24.1579 5.40351C25.7368 5.71229 26.8421 6.79299 27 8.49123C27.1579 10.807 27.3158 13.2772 27.1579 17.4456C27 25.6281 26.5263 33.6561 25.4211 41.6842C24 52.1825 18.7895 73.9509 9.47368 73.9509C7.73684 73.9509 5.84211 73.6421 4.10526 73.6421C1.10526 73.6421 0 74.7228 0 75.8035C0 77.6561 2.21053 80.1263 3.63158 81.6702C4.57895 82.7509 8.52632 88 11.2105 88C11.8421 88 12.9474 87.3825 12.9474 86.1474C12.9474 84.7579 11.3684 83.0596 9.63158 81.6702C7.42105 79.6632 8.36842 77.9649 11.6842 77.8105C15.6316 77.6561 19.5789 77.5018 23.5263 77.5018C37.1053 77.5018 50.8421 78.1193 64.2632 78.2737C64.7368 78.2737 66.4737 78.1193 67.8947 78.1193C69.1579 78.1193 69.9474 78.2737 69.9474 78.7368C69.9474 82.1333 67.7368 82.7509 67.7368 86.1474C67.7368 87.2281 67.8947 88 68.8421 88C72.4737 88 75 77.5018 75 76.4211C75 74.8772 74.3684 74.5684 73.4211 74.5684C72.7895 74.5684 71.8421 74.8772 70.8947 74.8772C69.9474 74.8772 68.6842 74.7228 68.6842 72.7158C68.6842 52.3368 67.7368 30.8772 65.3684 10.1895L64.8947 6.17544C64.7368 5.86667 64.7368 5.09474 64.8947 4.63158C65.0526 4.47719 65.2105 4.32281 65.6842 4.32281L67.8947 4.47719C69.6316 4.47719 71.2105 3.24211 71.2105 2.3158C71.2105 1.08071 69.1579 0 65.6842 0C54.6316 0 44.3684 0.617545 33.6316 1.08071C29.6842 1.08071 21.9474 0.463161 21.9474 4.01404C21.9474 4.94036 22.8947 5.24912 24.1579 5.40351ZM31.2632 11.7333C31.2632 7.87369 33.6316 5.09474 37.5789 4.78597C39.9474 4.63158 42.3158 4.63158 44.0526 4.63158C45.4737 4.63158 45.9474 5.24912 46.2632 7.87369C46.8947 18.6807 47.5263 31.0316 48.1579 41.6842C48.7895 51.5649 49.8947 57.7403 49.8947 72.0982C49.8947 74.2596 49.4211 74.414 47.2105 74.414C40.5789 74.414 38.5263 73.9509 34.1053 73.9509C29.8421 73.9509 25.8947 74.1053 21.7895 73.9509C19.5789 73.9509 18.6316 72.5614 19.8947 71.0175C20.5263 69.9368 21.3158 69.0105 21.9474 67.9298C30.7895 51.8737 31.2632 29.9509 31.2632 11.7333Z" fill="#459B73"/>
</svg>
