<?xml version="1.0" encoding="UTF-8"?>
<!DOCTYPE svg PUBLIC "-//W3C//DTD SVG 1.1//EN" "http://www.w3.org/Graphics/SVG/1.1/DTD/svg11.dtd">
<!-- Creator: CorelDRAW 2020 (64-Bit) -->
<svg xmlns="http://www.w3.org/2000/svg" xml:space="preserve" width="47.6566mm" height="6.6639mm" version="1.1" style="shape-rendering:geometricPrecision; text-rendering:geometricPrecision; image-rendering:optimizeQuality; fill-rule:evenodd; clip-rule:evenodd"
viewBox="0 0 2428.37 339.56"
 xmlns:xlink="http://www.w3.org/1999/xlink"
 xmlns:xodm="http://www.corel.com/coreldraw/odm/2003">
 <defs>
  <style type="text/css">
   <![CDATA[
    .fil0 {fill:#459B74;fill-rule:nonzero}
   ]]>
  </style>
 </defs>
 <g id="Слой_x0020_1">
  <metadata id="CorelCorpID_0Corel-Layer"/>
  <path class="fil0" d="M76.32 39.77c4.99,1 8.48,4.49 8.98,9.98 0.49,7.48 0.99,15.46 0.49,28.93 -0.49,26.44 -1.99,52.38 -5.48,78.31 -4.49,33.92 -20.95,104.26 -50.38,104.26 -5.49,0 -11.47,-0.99 -16.96,-0.99 -9.48,0 -12.97,3.49 -12.97,6.98 0,5.99 6.99,13.97 11.48,18.96 2.99,3.5 15.47,20.45 23.94,20.45 2,0 5.49,-2 5.49,-5.99 0,-4.49 -4.99,-9.98 -10.48,-14.47 -6.98,-6.48 -3.99,-11.97 6.49,-12.47 12.47,-0.5 24.94,-1 37.41,-1 42.9,0 86.3,2 128.7,2.5 1.5,0 6.99,-0.5 11.48,-0.5 3.99,0 6.48,0.5 6.48,1.99 0,10.98 -6.98,12.97 -6.98,23.94 0,3.5 0.5,5.99 3.49,5.99 11.48,0 19.45,-33.92 19.45,-37.41 0,-4.99 -2,-5.99 -4.99,-5.99 -2,0 -4.99,1 -7.98,1 -3,0 -6.99,-0.5 -6.99,-6.99 0,-65.84 -2.99,-135.18 -10.48,-202.02l-1.49 -12.97c-0.5,-1 -0.5,-3.49 0,-4.99 0.49,-0.5 0.99,-1 2.49,-1l6.99 0.5c5.48,0 10.47,-3.99 10.47,-6.98 0,-3.99 -6.48,-7.49 -17.46,-7.49 -34.92,0 -67.34,2 -101.26,3.5 -12.47,0 -36.91,-2 -36.91,9.48 0,2.99 2.99,3.99 6.98,4.49zm22.45 20.45c0,-12.47 7.48,-21.45 19.95,-22.45 7.48,-0.5 14.96,-0.5 20.45,-0.5 4.49,0 5.99,2 6.99,10.48 1.99,34.92 3.99,74.82 5.99,109.24 1.99,31.93 5.48,51.88 5.48,98.27 0,6.98 -1.49,7.48 -8.48,7.48 -20.95,0 -27.43,-1.5 -41.4,-1.5 -13.47,0 -25.94,0.5 -38.91,0 -6.99,0 -9.98,-4.49 -5.99,-9.48 2,-3.49 4.49,-6.48 6.49,-9.97 27.93,-51.88 29.43,-122.72 29.43,-181.58zm396.3 -12.47c2,-5.99 7.49,-9.48 13.47,-10.98 4.49,-0.5 8.48,-2.49 8.48,-4.99 0,-2.49 -3.5,-8.48 -15.47,-8.48 -4.49,0 -9.48,0.5 -12.97,0.5 -22.95,0 -41.91,-2 -67.84,-2 -7.49,0 -10.98,3.99 -10.98,7.49 0,4.99 3.49,6.49 9.98,7.48 8.48,0.5 12.47,5.49 9.98,13.47 -7.98,27.93 -17.96,56.87 -28.43,81.8 -1,3.5 -2.5,8.98 -3.99,14.47 -2,5.99 -9.48,6.99 -14.47,1.5 -10.48,-11.97 -17.96,-30.43 -22.95,-43.4 -4.99,-11.47 -8.98,-22.95 -13.47,-34.92 -2.99,-6.98 -7.48,-16.96 -9.48,-25.44 -1.49,-3.99 1.5,-6.49 5.49,-6.49 2,0 4.49,0 6.99,0 8.98,0 19.95,-1 19.95,-8.48 0,-4.99 -7.98,-6.49 -16.46,-6.49 -7.48,0 -15.47,1 -17.96,1 -15.96,0 -31.93,-0.5 -47.39,-0.5 -4.49,0 -8.98,1.5 -8.98,6.49 0,5.99 9.48,7.98 15.46,7.98 4.99,0 10.48,-1 15.47,-1 18.96,0 20.95,27.94 26.94,43.9 8.98,26.44 19.45,53.88 36.92,75.32 1.49,1.5 2.49,3 3.99,3.99 3.49,3.49 9.98,7.48 9.98,10.47 0,3 -3,8.98 -5.49,13.47 -1.5,2.99 -3.99,7.48 -5.49,10.97 -4.99,12.47 -10.98,24.44 -16.96,36.42 -5.49,10.48 -10.98,32.42 -23.44,32.42 -3.99,0 -8.98,-1 -13.97,-1 -5.98,0 -10.97,1.5 -10.97,6.99 0,6.48 18.46,7.98 39.9,7.98 17.46,0 34.92,-1 40.41,-1 5.49,0 17.96,2 28.93,2 12.47,0 18.96,-3.99 18.96,-8.48 0,-3 -3.99,-4.49 -8.48,-5.49 -6.49,-1 -9.48,-5.49 -7.49,-11.48 11.48,-32.92 26.44,-65.35 37.91,-98.77 11.97,-34.92 21.95,-71.33 33.92,-106.75zm145.3 166.11c-2,-31.92 20.45,-51.88 51.88,-56.37 41.4,-6.48 80.31,-22.95 80.31,-64.35 0,-46.4 -64.35,-59.86 -104.75,-64.35 -27.43,-2.99 -49.89,-3.49 -80.81,-3.49 -18.96,0 -37.91,1.49 -37.91,8.48 0,5.99 6.48,6.49 10.48,6.49 1.99,0 4.49,-0.5 6.48,-0.5 3.99,0 4.99,2.49 4.99,9.48 0,6.48 -1,14.47 -1,16.96 1,62.35 3.5,121.22 3.5,192.55 0,10.48 -19.95,2.49 -19.95,14.47 0,2 1.99,6.49 9.48,6.49 28.43,0 56.37,-0.5 84.8,-0.5 12.47,0 22.95,0 22.95,-6.99 0,-9.48 -14.96,-8.48 -19.45,-8.48 -6.98,0 -9.97,-24.44 -10.97,-49.89zm4.99 -65.35c-3.5,-0.5 -5.99,-4.49 -6.49,-7.98 0,-4.49 0,-8.48 0,-12.97 0,-12.97 0.5,-25.94 0.5,-38.9 0,-4.49 -0.5,-13.47 -0.5,-22.95 0,-16.96 1,-26.44 10.48,-26.44 4.99,0 109.74,8.48 109.74,53.88 0,42.4 -67.34,55.37 -107.25,55.37 -1.99,0 -4.49,0 -6.48,0zm210.87 -108.74c4.99,1 8.48,4.49 8.98,9.98 0.5,7.48 1,15.46 0.5,28.93 -0.5,26.44 -1.99,52.38 -5.49,78.31 -4.49,33.92 -20.95,104.26 -50.38,104.26 -5.49,0 -11.48,-0.99 -16.96,-0.99 -9.48,0 -12.97,3.49 -12.97,6.98 0,5.99 6.99,13.97 11.48,18.96 2.99,3.5 15.47,20.45 23.94,20.45 1.99,0 5.49,-2 5.49,-5.99 0,-4.49 -4.99,-9.98 -10.48,-14.47 -6.99,-6.48 -3.99,-11.97 6.48,-12.47 12.47,-0.5 24.94,-1 37.42,-1 42.9,0 86.3,2 128.7,2.5 1.49,0 6.98,-0.5 11.47,-0.5 3.99,0 6.49,0.5 6.49,1.99 0,10.98 -6.99,12.97 -6.99,23.94 0,3.5 0.5,5.99 3.5,5.99 11.47,0 19.45,-33.92 19.45,-37.41 0,-4.99 -2,-5.99 -4.99,-5.99 -2,0 -4.99,1 -7.98,1 -2.99,0 -6.98,-0.5 -6.98,-6.99 0,-65.84 -3,-135.18 -10.48,-202.02l-1.5 -12.97c-0.5,-1 -0.5,-3.49 0,-4.99 0.5,-0.5 1,-1 2.5,-1l6.98 0.5c5.49,0 10.48,-3.99 10.48,-6.98 0,-3.99 -6.48,-7.49 -17.46,-7.49 -34.92,0 -67.34,2 -101.26,3.5 -12.47,0 -36.91,-2 -36.91,9.48 0,2.99 2.99,3.99 6.98,4.49zm22.45 20.45c0,-12.47 7.48,-21.45 19.95,-22.45 7.49,-0.5 14.97,-0.5 20.45,-0.5 4.49,0 5.99,2 6.99,10.48 1.99,34.92 3.99,74.82 5.98,109.24 2,31.93 5.49,51.88 5.49,98.27 0,6.98 -1.49,7.48 -8.48,7.48 -20.95,0 -27.43,-1.5 -41.4,-1.5 -13.47,0 -25.94,0.5 -38.91,0 -6.99,0 -9.98,-4.49 -5.99,-9.48 2,-3.49 4.49,-6.48 6.49,-9.97 27.93,-51.88 29.43,-122.72 29.43,-181.58zm418.25 -28.43c0,-186.43 0,531.25 0,0zm67.98 -10.47c-27.44,1.49 -34.92,2.99 -34.92,6.98 0,6.49 12.97,6.49 15.97,9.48 1.49,1.5 3.49,52.38 4.99,113.24l2.49 108.74c0,2.99 -2,5.99 -4.49,6.98l-4.99 2c-17.46,8.48 -3.99,11.48 40.91,10.48 39.41,-0.5 47.89,-2 47.89,-5.99 0,-2.99 -3.99,-5.99 -8.98,-6.99 -7.98,-1.49 -8.98,-3.99 -11.47,-28.43 -1.5,-13.47 -2,-35.91 -1.5,-49.88l0.5 -12.47c0.5,-7.48 5.49,-14.47 12.47,-17.46l12.47 -4.99c30.92,-11.97 49.88,-11.97 60.86,-6.49 5.99,3.5 6.49,7.49 5.99,37.42 -0.5,18.46 -1.5,43.89 -3,56.37 -1.49,18.96 -7.98,21.45 -16.96,25.94 -9.48,4.99 -9.98,4.99 -3.49,9.98 8.48,6.99 123.71,4.49 89.79,-8.48l-4.49 -1.5c-3,-0.99 -4.99,-3.99 -4.99,-6.98l1.99 -103.26c1,-60.86 3,-117.22 3.5,-119.72 1,-4.98 16.96,-4.49 16.96,-10.97 0,-4.49 -8.48,-4.99 -53.88,-4.99 -40.4,0 -48.88,0.5 -48.88,4.99 0,2.99 3.99,6.48 9.98,6.98l5.48 1c3,0.5 4.99,2.99 4.99,5.99 0.5,26.94 1,56.87 1.5,83.8 0,5.99 -3.99,9.98 -9.98,9.98l-9.98 0c-12.47,0 -37.41,3 -48.89,7.49 -10.97,4.49 -20.45,5.98 -21.95,4.49 -1.5,-1.5 -2,-26.94 -1.5,-56.37l1 -47.89c0,-3 2,-5.49 5.49,-5.99l4.99 -1c5.99,-0.5 9.98,-3.99 9.98,-6.99 0,-5.98 -10.98,-8.48 -65.84,-5.48zm340.54 13.97c8.48,0 8.98,5.49 1.49,27.43 -3.99,11.97 -12.47,40.41 -18.46,63.85l-8.98 35.91c-1.5,3.99 -4.99,6.99 -8.98,7.98l-6.99 1c-16.46,3 -31.92,11.97 -31.92,18.96 0,7.98 6.99,8.98 15.96,1.5 9.48,-7.48 25.44,-9.48 25.44,-3.49 0,6.48 -21.45,70.83 -24.94,74.32 -1.5,1.5 -8.98,3 -15.96,3 -17.96,0 -17.46,8.98 1,12.97 21.95,4.99 55.37,1.99 55.37,-3.99 0,-3 -4.49,-5.99 -11.97,-6.99 -4.49,-0.5 -8.48,-1.99 -9.98,-2.99 -1,-1 -0.5,-3.99 0,-7.49 4.99,-18.96 21.95,-69.34 23.94,-70.33 1.5,-1 13.47,2.5 26.44,7.48 12.97,4.99 31.43,9.48 40.91,9.98l8.98 0.5c4.99,0 9.48,3.5 11.47,8.48l2.5 8.48c2.99,9.48 6.99,21.95 8.48,28.43 2,10.48 1.5,11.47 -10.48,16.46 -23.44,9.48 -10.47,12.47 53.88,11.48 50.88,-1 60.36,-1.5 60.36,-5.99 0,-3.49 -4.99,-5.99 -15.96,-6.98 -14.97,-1.5 -15.47,-2 -21.95,-18.46 -17.46,-46.89 -50.38,-190.06 -46.39,-201.03 1,-2.99 4.99,-4.98 8.98,-4.98 7.98,0 12.97,-5.99 8.98,-9.98 -3.49,-3.5 -100.76,-5.99 -123.71,-3.99 -2.99,0 -6.48,1.5 -6.98,3.5 0,2.49 2.49,5.49 9.48,5.49l0 -0.5zm60.36 152.14c-4.99,5.49 -7.98,4.99 -47.39,-5.99 -18.46,-4.99 -25.44,-8.48 -25.44,-12.97 0,-15.47 29.93,-118.22 34.42,-118.22 1.5,0 8.48,16.46 14.97,36.91 21.95,69.83 28.43,94.28 23.44,100.27zm361.08 90.29c0,0.5 0,1 0,1.5 0,6.48 2.99,15.47 4.49,21.95 1.5,8.48 1.99,38.41 14.47,38.41 5.49,0 7.48,-4.49 7.48,-9.48 0,-3.99 2,-8.98 2.5,-12.97 1,-6.49 1,-12.97 1,-18.96l0 -24.94c0,-2.99 -2.5,-5.99 -4.99,-6.49 -1.5,-0.5 -2.5,-0.5 -3.99,0 -2.49,-0.99 -5.98,-1.49 -9.97,-1.99 -13.97,-1.5 -15.96,1 -26.44,-14.47 -29.93,-44.9 -56.37,-91.79 -56.37,-99.77 0,-4.99 11.47,-31.43 25.44,-58.86l20.95 -43.9c2.5,-4.49 7.49,-7.98 12.97,-8.48l8.48 -0.5c20.95,-1 27.93,-3.49 23.94,-7.48 -1.5,-1.5 -22.45,-3 -46.4,-3.5 -35.91,-0.5 -43.4,0 -43.4,3.99 0,1.5 18.46,8.48 26.94,9.48 1.99,0 1.99,4.49 -1.5,12.97 -3.99,9.48 -9.98,22.45 -16.46,35.41 -17.46,34.42 -21.95,40.91 -25.44,36.92 -1,-1 -54.37,-82.81 -45.4,-85.3 5.49,-1.99 15.47,-2.49 15.47,-9.97 0,-4.49 -6.98,-4.99 -47.39,-4.49 -26.44,0 -54.87,1.5 -63.35,2.5 -20.45,2.99 -19.95,8.98 1,10.48l8.48 0.5c4.49,0.5 9.98,3.49 12.97,7.48l13.47 18.96c38.91,61.36 50.88,85.8 48.39,97.77 -1,5.98 -12.47,30.43 -25.44,54.37l-18.46 34.92c-3,4.99 -8.98,8.98 -14.97,8.98l-9.98 0.5c-16.46,0.5 -19.95,2 -18.96,6.99 1,4.99 6.98,5.48 44.4,5.48 35.91,0 43.4,-0.49 43.4,-4.49 0,-6.98 -23.45,-6.48 -26.94,-9.98 -3.49,-3.49 34.42,-79.81 39.41,-79.81 3.49,0 40.9,69.34 40.9,75.82 0,4.49 -14.96,4.99 -12.97,11.48 2,5.99 42.9,9.98 91.29,8.98 3.99,0 7.98,0 10.98,0zm145.05 -249.69c-40.41,8.48 -73.83,33.92 -90.29,68.84 -12.97,28.93 -13.47,87.29 0.5,115.73 11.97,26.44 36.41,51.88 58.86,61.86 15.47,7.48 22.95,8.48 57.37,8.48 36.92,0 41.41,-1 58.36,-9.48 9.98,-4.99 23.94,-15.47 31.43,-22.95 37.41,-37.42 51.38,-110.74 30.43,-160.13 -9.48,-21.95 -34.91,-44.9 -60.36,-54.37 -22.95,-8.48 -62.85,-12.97 -86.3,-7.98zm65.35 18.46c17.96,14.97 23.44,126.21 9.48,182.57 -10.97,41.4 -12.47,42.9 -45.39,42.9 -15.47,0 -28.43,-1.5 -31.93,-4.49 -9.54,-6.89 -17.13,-40.97 -20.46,-80.06 -2.95,-34.48 -2.64,-72.9 2.51,-100.02 6.99,-37.91 9.48,-42.9 21.45,-44.9 16.96,-2.99 59.36,0 64.35,3.99z"/>
  <path class="fil0" d="M1147.26 19.31c-40.41,8.48 -73.83,33.92 -90.29,68.84 -12.97,28.93 -13.47,87.29 0.5,115.73 11.97,26.44 36.41,51.88 58.86,61.86 15.47,7.48 22.95,8.48 57.37,8.48 36.92,0 41.41,-1 58.36,-9.48 9.98,-4.99 23.94,-15.47 31.43,-22.95 37.41,-37.42 51.38,-110.74 30.43,-160.13 -9.48,-21.95 -34.91,-44.9 -60.36,-54.37 -22.95,-8.48 -62.85,-12.97 -86.3,-7.98zm65.35 18.46c17.96,14.97 23.44,126.21 9.48,182.57 -10.97,41.4 -12.47,42.9 -45.39,42.9 -15.47,0 -28.43,-1.5 -31.93,-4.49 -9.54,-6.89 -17.12,-40.97 -20.46,-80.06 -2.95,-34.48 -2.64,-72.9 2.51,-100.02 6.99,-37.91 9.48,-42.9 21.45,-44.9 16.96,-2.99 59.36,0 64.35,3.99z"/>
 </g>
</svg>
